<?xml version="1.0" encoding="UTF-8"?> <svg xmlns="http://www.w3.org/2000/svg" id="Layer_1" version="1.1" viewBox="0 0 325.63 65.04"><!-- Generator: Adobe Illustrator 29.3.1, SVG Export Plug-In . SVG Version: 2.1.0 Build 151) --><path d="M33.37,37.47c-1.75,6.68-6.73,11.65-15.66,11.65C5.94,49.12,0,40.19,0,29.06S5.94,8.7,17.91,8.7c9.28,0,14.32,5.29,15.48,11.87h-5.22c-1.41-4.29-4.25-7.52-10.47-7.52-8.68,0-12.23,7.89-12.23,15.86s3.37,15.86,12.46,15.86c6.07,0,8.73-3.48,10.21-7.3h5.24ZM43.8,7.09v17.08c1.46-2.52,4.08-4.91,8.95-4.91,4.6,0,9.66,2.52,9.66,11.06v18.31h-4.93v-17.49c0-4.88-2.07-7.59-6.24-7.59-5.16,0-7.44,3.41-7.44,9.39v15.69h-4.95V7.09h4.95ZM72.69,35.18h0c.04,5.84,2.97,9.98,7.84,9.98,4.54,0,6.01-2.34,6.93-4.44h4.99c-1.13,3.67-4.21,8.58-12.07,8.58-9.02,0-12.7-7.33-12.7-14.72,0-8.53,4.3-15.33,13.02-15.33,9.25,0,12.29,7.42,12.29,13.54,0,.87,0,1.6-.08,2.38h-20.22ZM87.96,31.69h0c-.06-4.72-2.43-8.51-7.33-8.51s-7.26,3.51-7.77,8.51h15.1ZM95.31,44.62l16.52-20.52h-15.69v-4.16h21.34v4.16l-16.27,20.37h17.05l-.8,4.16h-22.15v-4.01ZM121.06,44.62l16.52-20.52h-15.69v-4.16h21.34v4.16l-16.27,20.37h17.05l-.8,4.16h-22.15v-4.01ZM148.09,7.09h4.95v6.19h-4.95v-6.19ZM153.04,19.94v28.69h-4.95v-28.69h4.95Z"></path><g><path d="M168.11,9.14l.23-.79h17.09c2.68,0,4.99.42,6.93,1.27,1.94.85,3.54,1.98,4.81,3.39,1.26,1.42,2.2,3.05,2.8,4.89.6,1.85.91,3.79.91,5.83,0,3.06-.66,6.07-1.98,9.05-1.32,2.98-3.18,5.66-5.57,8.04-2.4,2.38-5.25,4.3-8.57,5.77-3.32,1.47-6.98,2.21-10.98,2.21-.79,0-1.58,0-2.38-.03-.79-.02-1.58-.05-2.38-.08-.83-.04-1.64-.06-2.43-.06h-11.88l.23-.79h5.77l13.92-38.7h-6.51ZM169.24,47.95c1.13.08,2.28.11,3.45.11.98,0,1.89-.05,2.72-.14.83-.09,1.65-.25,2.46-.48.81-.23,1.64-.54,2.49-.93.85-.4,1.76-.9,2.74-1.5,2.04-1.28,3.86-2.89,5.46-4.81,1.6-1.92,2.97-4.04,4.1-6.34,1.13-2.3,1.99-4.72,2.57-7.27.58-2.55.88-5.06.88-7.55,0-2.15-.44-3.95-1.33-5.4-.89-1.45-1.93-2.5-3.14-3.14-.91-.45-1.89-.79-2.94-1.02-1.06-.23-2.43-.34-4.13-.34h-4.87l-13.81,38.64c1.09.04,2.21.09,3.34.17Z"></path><path d="M221.35,44.53c-.45.7-1.08,1.4-1.87,2.09-.79.7-1.76,1.32-2.91,1.87-1.15.55-2.54.82-4.16.82s-2.99-.26-4.1-.79c-1.11-.53-2.02-1.21-2.72-2.04-.7-.83-1.21-1.74-1.53-2.74-.32-1-.48-1.97-.48-2.91,0-1.89.46-3.84,1.39-5.86.92-2.02,2.13-3.87,3.62-5.54,1.49-1.68,3.18-3.06,5.06-4.16,1.89-1.09,3.81-1.64,5.77-1.64.75,0,1.51.08,2.26.25.75.17,1.43.42,2.04.76.6.34,1.09.77,1.47,1.3.38.53.57,1.17.57,1.92,0,1.02-.27,1.92-.82,2.69-.55.77-1.25,1.43-2.12,1.98-.87.55-1.82,1.01-2.86,1.39-1.04.38-2.05.67-3.03.88-.98.21-1.88.36-2.69.45-.81.09-1.41.14-1.78.14-.64,0-1.26-.02-1.87-.06-.6-.04-1.13-.09-1.58-.17-.42,1.21-.76,2.4-1.05,3.59-.28,1.19-.42,2.44-.42,3.76,0,2.04.53,3.56,1.58,4.55,1.06,1,2.39,1.5,4.02,1.5,1.21,0,2.27-.24,3.2-.71.92-.47,1.73-1.03,2.43-1.67.7-.64,1.28-1.29,1.75-1.95.47-.66.86-1.18,1.16-1.56l.68.4c-.23.26-.57.75-1.02,1.44ZM221.58,25.21c-.45-.53-1.21-.79-2.26-.79-1.17,0-2.29.34-3.37,1.02-1.08.68-2.05,1.52-2.91,2.52-.87,1-1.62,2.07-2.26,3.22-.64,1.15-1.13,2.22-1.47,3.2.87.15,1.83.23,2.89.23,1.36,0,2.64-.21,3.85-.62,1.21-.41,2.27-.96,3.2-1.64.92-.68,1.66-1.47,2.21-2.38.55-.91.82-1.85.82-2.83,0-.75-.23-1.4-.68-1.92Z"></path><path d="M229.33,25.15l.23-.79h8.94l-2.32,6.96h.11c3.66-4.87,7.11-7.3,10.35-7.3,1.58,0,2.84.42,3.76,1.27.92.85,1.39,1.9,1.39,3.14,0,.64-.1,1.27-.31,1.9-.21.62-.46,1.37-.76,2.24l-3.68,10.47c-.23.64-.43,1.27-.62,1.9-.19.62-.28,1.24-.28,1.84,0,.45.09.87.28,1.25.19.38.58.57,1.19.57.68,0,1.3-.19,1.87-.57.57-.38,1.08-.83,1.56-1.36.47-.53.88-1.08,1.22-1.67.34-.58.6-1.08.79-1.5l.62.28c-.19.38-.45.88-.79,1.5-.34.62-.78,1.24-1.33,1.84-.55.6-1.22,1.12-2.01,1.56-.79.43-1.74.65-2.83.65-1.21,0-2.23-.26-3.06-.79-.83-.53-1.24-1.39-1.24-2.6,0-.49.07-1,.2-1.53.13-.53.29-1.09.48-1.7l4.75-13.52c.3-.91.45-1.66.45-2.26,0-.49-.16-.96-.48-1.42-.32-.45-.9-.68-1.73-.68s-1.79.31-2.89.93c-1.09.62-2.19,1.47-3.28,2.55-1.09,1.08-2.12,2.34-3.08,3.79-.96,1.45-1.75,3.03-2.35,4.72l-4.24,11.83h-3.9l8.15-23.48h-5.15Z"></path><path d="M255.98,28.71c.23-.83.56-1.62.99-2.38.43-.75.98-1.39,1.64-1.92.66-.53,1.5-.79,2.52-.79,1.21,0,2.22.31,3.03.93.81.62,1.45,1.41,1.92,2.35.47.94.81,1.96,1.02,3.05.21,1.09.31,2.11.31,3.06,0,2.49-.14,4.63-.42,6.42-.28,1.79-.56,3.29-.82,4.5h.11l8.66-15.62c.3-.57.61-1.13.93-1.7.32-.57.69-1.07,1.1-1.5.42-.43.9-.79,1.44-1.08.55-.28,1.18-.42,1.9-.42.91,0,1.54.23,1.9.68.36.45.54.96.54,1.53,0,.72-.23,1.3-.68,1.75-.45.45-1.06.68-1.81.68s-1.07-.34-1.07-1.02c0-.41.1-.73.31-.93.21-.21.31-.48.31-.82,0-.57-.26-.81-.79-.74-.45.04-.94.37-1.47.99-.53.62-1.21,1.67-2.04,3.14l-10.3,18.67-3.28,6.11c-.64,1.21-1.31,2.38-2.01,3.51-.7,1.13-1.44,2.13-2.23,3-.79.87-1.62,1.57-2.49,2.09-.87.53-1.77.79-2.72.79-1.43,0-2.59-.35-3.48-1.05-.89-.7-1.33-1.65-1.33-2.86,0-.98.28-1.63.85-1.95.57-.32,1.17-.48,1.81-.48.49,0,.89.12,1.19.37.3.24.45.59.45,1.05,0,.34-.03.59-.08.76-.06.17-.12.34-.2.51-.08.17-.14.36-.2.57-.06.21-.08.5-.08.88,0,.41.18.75.54,1.02.36.26.82.4,1.39.4,1.06,0,2.16-.68,3.31-2.04,1.15-1.36,2.21-3.14,3.17-5.35.96-2.21,1.75-4.73,2.38-7.58.62-2.85.93-5.76.93-8.74s-.08-5.34-.23-7.19c-.15-1.85-.35-3.29-.59-4.33-.25-1.04-.52-1.73-.82-2.09-.3-.36-.62-.54-.96-.54-.68,0-1.26.25-1.75.76-.49.51-.91,1.12-1.24,1.84s-.61,1.45-.82,2.21c-.21.75-.37,1.38-.48,1.87l-.79-.23c.15-.6.34-1.32.57-2.15Z"></path><path d="M297.79,44.53c-.45.7-1.08,1.4-1.87,2.09-.79.7-1.76,1.32-2.91,1.87-1.15.55-2.54.82-4.16.82s-2.99-.26-4.1-.79c-1.11-.53-2.02-1.21-2.72-2.04-.7-.83-1.21-1.74-1.53-2.74-.32-1-.48-1.97-.48-2.91,0-1.89.46-3.84,1.39-5.86.92-2.02,2.13-3.87,3.62-5.54,1.49-1.68,3.18-3.06,5.06-4.16,1.89-1.09,3.81-1.64,5.77-1.64.75,0,1.51.08,2.26.25.75.17,1.43.42,2.04.76.6.34,1.09.77,1.47,1.3.38.53.57,1.17.57,1.92,0,1.02-.27,1.92-.82,2.69-.55.77-1.25,1.43-2.12,1.98-.87.55-1.82,1.01-2.86,1.39-1.04.38-2.05.67-3.03.88-.98.21-1.88.36-2.69.45-.81.09-1.41.14-1.78.14-.64,0-1.26-.02-1.87-.06-.6-.04-1.13-.09-1.58-.17-.42,1.21-.76,2.4-1.05,3.59-.28,1.19-.42,2.44-.42,3.76,0,2.04.53,3.56,1.58,4.55,1.06,1,2.39,1.5,4.02,1.5,1.21,0,2.27-.24,3.2-.71.92-.47,1.73-1.03,2.43-1.67.7-.64,1.28-1.29,1.75-1.95.47-.66.86-1.18,1.16-1.56l.68.4c-.23.26-.57.75-1.02,1.44ZM298.02,25.21c-.45-.53-1.21-.79-2.26-.79-1.17,0-2.29.34-3.37,1.02-1.08.68-2.05,1.52-2.91,2.52-.87,1-1.62,2.07-2.26,3.22-.64,1.15-1.13,2.22-1.47,3.2.87.15,1.83.23,2.89.23,1.36,0,2.64-.21,3.85-.62,1.21-.41,2.27-.96,3.2-1.64.92-.68,1.66-1.47,2.21-2.38.55-.91.82-1.85.82-2.83,0-.75-.23-1.4-.68-1.92Z"></path><path d="M309.84,28.2c.3-1.02.6-2.04.91-3.05h-4.92l.23-.79h8.71c-.19.79-.46,1.79-.82,3-.36,1.21-.75,2.38-1.16,3.51l.11.11c.38-.57.85-1.24,1.41-2.04.57-.79,1.21-1.56,1.92-2.29.72-.74,1.51-1.36,2.38-1.87.87-.51,1.79-.76,2.77-.76,1.4,0,2.46.4,3.2,1.19.74.79,1.08,1.64,1.05,2.55,0,.6-.1,1.1-.31,1.5-.21.4-.47.7-.79.91-.32.21-.65.35-.99.42-.34.08-.66.11-.96.11-.53,0-.96-.13-1.3-.4-.34-.26-.51-.66-.51-1.19,0-.41.08-.73.25-.93.17-.21.35-.4.54-.59.19-.19.37-.4.54-.62s.25-.53.25-.91-.15-.68-.45-.91c-.3-.23-.68-.34-1.13-.34-.72,0-1.55.37-2.49,1.1-.94.74-1.88,1.68-2.8,2.83-.92,1.15-1.8,2.46-2.63,3.93-.83,1.47-1.51,2.94-2.04,4.41l-4.07,11.54h-3.96l6.11-17.43c.34-.98.66-1.98.96-3Z"></path></g></svg> 